<svg width="173" height="48" viewBox="0 0 173 48" fill="none" xmlns="http://www.w3.org/2000/svg">
<rect width="173" height="48" fill="#9E9E9E"/>
<path d="M45.6512 20.515C44.3812 20.515 43.7462 20.96 43.7462 21.85C43.7462 22.31 43.8962 22.64 44.1962 22.84C44.4962 23.03 45.1562 23.27 46.1762 23.56C47.2062 23.84 47.9312 24.18 48.3512 24.58C48.7712 24.97 48.9812 25.59 48.9812 26.44C48.9812 27.52 48.6712 28.33 48.0512 28.87C47.4412 29.4 46.6062 29.665 45.5462 29.665C44.6962 29.665 43.7562 29.565 42.7262 29.365L42.1862 29.26L42.3512 27.925C43.7012 28.105 44.7312 28.195 45.4412 28.195C46.6812 28.195 47.3012 27.645 47.3012 26.545C47.3012 26.115 47.1612 25.8 46.8812 25.6C46.6012 25.39 45.9712 25.165 44.9912 24.925C44.0112 24.675 43.2812 24.335 42.8012 23.905C42.3212 23.475 42.0812 22.795 42.0812 21.865C42.0812 20.935 42.3812 20.235 42.9812 19.765C43.5912 19.285 44.4312 19.045 45.5012 19.045C46.2712 19.045 47.1812 19.135 48.2312 19.315L48.7562 19.405L48.6212 20.755C47.2212 20.595 46.2312 20.515 45.6512 20.515ZM52.0307 29.5V19.225H58.5107V20.68H53.6957V23.59H57.6107V25.03H53.6957V28.03H58.5107V29.5H52.0307ZM64.9338 29.665C63.4338 29.665 62.4138 29.25 61.8738 28.42C61.3438 27.59 61.0788 26.225 61.0788 24.325C61.0788 22.425 61.3488 21.075 61.8888 20.275C62.4288 19.465 63.4438 19.06 64.9338 19.06C65.8238 19.06 66.8038 19.185 67.8738 19.435L67.8138 20.785C66.9138 20.625 66.0138 20.545 65.1138 20.545C64.2138 20.545 63.6038 20.815 63.2838 21.355C62.9638 21.885 62.8038 22.89 62.8038 24.37C62.8038 25.84 62.9588 26.845 63.2688 27.385C63.5788 27.915 64.1838 28.18 65.0838 28.18C65.9838 28.18 66.8938 28.105 67.8138 27.955L67.8588 29.335C66.8288 29.555 65.8538 29.665 64.9338 29.665ZM72.5608 27.325C72.9008 27.915 73.5508 28.21 74.5108 28.21C75.4708 28.21 76.1158 27.92 76.4458 27.34C76.7858 26.76 76.9558 25.79 76.9558 24.43C76.9558 23.06 76.7808 22.065 76.4308 21.445C76.0908 20.825 75.4508 20.515 74.5108 20.515C73.5708 20.515 72.9258 20.825 72.5758 21.445C72.2258 22.065 72.0508 23.055 72.0508 24.415C72.0508 25.765 72.2208 26.735 72.5608 27.325ZM77.7508 28.405C77.1408 29.245 76.0608 29.665 74.5108 29.665C72.9608 29.665 71.8758 29.245 71.2558 28.405C70.6358 27.555 70.3258 26.225 70.3258 24.415C70.3258 22.605 70.6358 21.26 71.2558 20.38C71.8858 19.5 72.9708 19.06 74.5108 19.06C76.0508 19.06 77.1308 19.5 77.7508 20.38C78.3708 21.25 78.6808 22.595 78.6808 24.415C78.6808 26.235 78.3708 27.565 77.7508 28.405ZM81.8696 29.5V19.225H84.7796L87.8996 28.03H88.1246V19.225H89.7896V29.5H86.9396L83.7446 20.68H83.5346V29.5H81.8696ZM96.9578 29.5H93.4028V19.225H96.9578C98.5378 19.225 99.6178 19.625 100.198 20.425C100.778 21.225 101.068 22.48 101.068 24.19C101.068 25.06 101.008 25.8 100.888 26.41C100.778 27.01 100.578 27.555 100.288 28.045C99.7178 29.015 98.6078 29.5 96.9578 29.5ZM99.3428 24.19C99.3428 22.95 99.1878 22.055 98.8778 21.505C98.5678 20.955 97.9278 20.68 96.9578 20.68H95.0678V28.03H96.9578C97.9478 28.03 98.6078 27.665 98.9378 26.935C99.0978 26.565 99.2028 26.17 99.2528 25.75C99.3128 25.33 99.3428 24.81 99.3428 24.19ZM103.201 29.5L105.736 19.225H109.051L111.601 29.5H109.921L109.366 27.295H105.421L104.866 29.5H103.201ZM107.026 20.62L105.751 25.825H109.036L107.776 20.62H107.026ZM115.981 25.84V29.5H114.316V19.225H118.216C120.536 19.225 121.696 20.315 121.696 22.495C121.696 23.955 121.136 24.945 120.016 25.465L121.711 29.5H119.881L118.396 25.84H115.981ZM119.986 22.51C119.986 21.28 119.396 20.665 118.216 20.665H115.981V24.4H118.246C118.846 24.4 119.286 24.23 119.566 23.89C119.846 23.54 119.986 23.08 119.986 22.51ZM128.281 29.5H126.601V25.27L123.376 19.225H125.251L127.426 23.635L129.616 19.225H131.476L128.281 25.27V29.5Z" fill="white"/>
</svg>
