<svg width="310" height="69" viewBox="0 0 310 69" fill="none" xmlns="http://www.w3.org/2000/svg">
<rect width="310" height="69" fill="#757575"/>
<path d="M98.844 36.805H96.744V40H95.079V29.725H98.844C101.174 29.725 102.339 30.875 102.339 33.175C102.339 34.355 102.044 35.255 101.454 35.875C100.874 36.495 100.004 36.805 98.844 36.805ZM96.744 35.365H98.829C100.029 35.365 100.629 34.635 100.629 33.175C100.629 32.475 100.484 31.965 100.194 31.645C99.904 31.325 99.449 31.165 98.829 31.165H96.744V35.365ZM106.856 36.34V40H105.191V29.725H109.091C111.411 29.725 112.571 30.815 112.571 32.995C112.571 34.455 112.011 35.445 110.891 35.965L112.586 40H110.756L109.271 36.34H106.856ZM110.861 33.01C110.861 31.78 110.271 31.165 109.091 31.165H106.856V34.9H109.121C109.721 34.9 110.161 34.73 110.441 34.39C110.721 34.04 110.861 33.58 110.861 33.01ZM115.714 40V29.725H117.379V40H115.714ZM120.992 40V29.725H123.887L126.182 37.75L128.477 29.725H131.387V40H129.707V31.57H129.482L127.052 39.58H125.312L122.882 31.57H122.657V40H120.992ZM134.101 40L136.636 29.725H139.951L142.501 40H140.821L140.266 37.795H136.321L135.766 40H134.101ZM137.926 31.12L136.651 36.325H139.936L138.676 31.12H137.926ZM146.881 36.34V40H145.216V29.725H149.116C151.436 29.725 152.596 30.815 152.596 32.995C152.596 34.455 152.036 35.445 150.916 35.965L152.611 40H150.781L149.296 36.34H146.881ZM150.886 33.01C150.886 31.78 150.296 31.165 149.116 31.165H146.881V34.9H149.146C149.746 34.9 150.186 34.73 150.466 34.39C150.746 34.04 150.886 33.58 150.886 33.01ZM159.181 40H157.501V35.77L154.276 29.725H156.151L158.326 34.135L160.516 29.725H162.376L159.181 35.77V40ZM175.19 40H169.43V29.725H171.095V38.515H175.19V40ZM176.914 40L179.449 29.725H182.764L185.314 40H183.634L183.079 37.795H179.134L178.579 40H176.914ZM180.739 31.12L179.464 36.325H182.749L181.489 31.12H180.739ZM189.693 36.34V40H188.028V29.725H191.928C194.248 29.725 195.408 30.815 195.408 32.995C195.408 34.455 194.848 35.445 193.728 35.965L195.423 40H193.593L192.108 36.34H189.693ZM193.698 33.01C193.698 31.78 193.108 31.165 191.928 31.165H189.693V34.9H191.958C192.558 34.9 192.998 34.73 193.278 34.39C193.558 34.04 193.698 33.58 193.698 33.01ZM202.736 36.07V34.6H205.661V39.82C205.391 39.89 204.841 39.965 204.011 40.045C203.191 40.125 202.596 40.165 202.226 40.165C200.666 40.165 199.591 39.735 199.001 38.875C198.411 38.015 198.116 36.67 198.116 34.84C198.116 33 198.416 31.66 199.016 30.82C199.626 29.98 200.676 29.56 202.166 29.56C203.046 29.56 204.036 29.66 205.136 29.86L205.661 29.965L205.601 31.285C204.391 31.125 203.306 31.045 202.346 31.045C201.386 31.045 200.726 31.315 200.366 31.855C200.016 32.395 199.841 33.395 199.841 34.855C199.841 36.315 200.006 37.325 200.336 37.885C200.676 38.435 201.356 38.71 202.376 38.71C203.106 38.71 203.651 38.665 204.011 38.575V36.07H202.736ZM209 40V29.725H215.48V31.18H210.665V34.09H214.58V35.53H210.665V38.53H215.48V40H209Z" fill="white"/>
</svg>
