<svg width="32" height="32" viewBox="0 0 32 32" fill="none" xmlns="http://www.w3.org/2000/svg">
<path d="M29.41 9.26001C29.2507 8.66805 28.9386 8.12832 28.5052 7.69485C28.0717 7.26137 27.5319 6.94935 26.94 6.79001C24.76 6.20001 16 6.20001 16 6.20001C16 6.20001 7.23999 6.20001 5.05999 6.79001C4.46803 6.94935 3.9283 7.26137 3.49482 7.69485C3.06135 8.12832 2.74933 8.66805 2.58999 9.26001C2.18294 11.4833 1.9854 13.7398 1.99999 16C1.9854 18.2602 2.18294 20.5167 2.58999 22.74C2.74933 23.332 3.06135 23.8717 3.49482 24.3052C3.9283 24.7387 4.46803 25.0507 5.05999 25.21C7.23999 25.8 16 25.8 16 25.8C16 25.8 24.76 25.8 26.94 25.21C27.5319 25.0507 28.0717 24.7387 28.5052 24.3052C28.9386 23.8717 29.2507 23.332 29.41 22.74C29.817 20.5167 30.0146 18.2602 30 16C30.0146 13.7398 29.817 11.4833 29.41 9.26001V9.26001ZM13.2 20.2V11.8L20.47 16L13.2 20.2Z" fill="black"/>
</svg>
