<svg width="32" height="32" viewBox="0 0 32 32" fill="none" xmlns="http://www.w3.org/2000/svg">
<path d="M18.303 9C17.9473 9.00004 17.5951 9.07138 17.2674 9.20982C16.9397 9.34825 16.6431 9.55097 16.395 9.806L16.002 10.211L15.605 9.806C15.357 9.55103 15.0603 9.34836 14.7326 9.20997C14.4049 9.07158 14.0527 9.00028 13.697 9.00028C13.3413 9.00028 12.9892 9.07158 12.6614 9.20997C12.3337 9.34836 12.0371 9.55103 11.789 9.806C11.2832 10.3283 11.0003 11.0269 11.0003 11.754C11.0003 12.4811 11.2832 13.1797 11.789 13.702L16.002 18L20.211 13.702C20.7169 13.1797 20.9997 12.4811 20.9997 11.754C20.9997 11.0269 20.7169 10.3283 20.211 9.806C19.963 9.55097 19.6663 9.34825 19.3386 9.20982C19.0109 9.07138 18.6588 9.00004 18.303 9V9Z" fill="black"/>
<path d="M16 30L7.56401 20.051C7.44679 19.9016 7.33079 19.7513 7.21601 19.6C5.77499 17.7018 4.99652 15.3832 5.00001 13C5.00001 10.0826 6.15894 7.28473 8.22184 5.22183C10.2847 3.15893 13.0826 2 16 2C18.9174 2 21.7153 3.15893 23.7782 5.22183C25.8411 7.28473 27 10.0826 27 13C27.0035 15.3821 26.2254 17.6996 24.785 19.597L24.784 19.6C24.784 19.6 24.484 19.994 24.439 20.047L16 30ZM8.81201 18.395C8.81401 18.395 9.04601 18.703 9.09901 18.769L16 26.908L22.91 18.758C22.954 18.703 23.188 18.393 23.189 18.392C24.3662 16.8411 25.0023 14.947 25 13C25 10.6131 24.0518 8.32387 22.364 6.63604C20.6761 4.94821 18.387 4 16 4C13.6131 4 11.3239 4.94821 9.63605 6.63604C7.94822 8.32387 7.00001 10.6131 7.00001 13C6.99791 14.9482 7.63479 16.8434 8.81301 18.395H8.81201Z" fill="black"/>
</svg>
