<svg width="32" height="32" viewBox="0 0 32 32" fill="none" xmlns="http://www.w3.org/2000/svg">
<path d="M29.482 8.62401L19.482 3.12401C19.3343 3.04278 19.1685 3.00018 19 3.00018C18.8315 3.00018 18.6657 3.04278 18.518 3.12401L8.51799 8.62401C8.36121 8.71034 8.23046 8.83716 8.1394 8.99124C8.04834 9.14533 8.00031 9.32103 8.00031 9.50001C8.00031 9.67899 8.04834 9.85469 8.1394 10.0088C8.23046 10.1629 8.36121 10.2897 8.51799 10.376L18 15.591V26.31L14.964 24.64L14 26.391L18.518 28.876C18.6656 28.9574 18.8314 29.0001 19 29.0001C19.1686 29.0001 19.3344 28.9574 19.482 28.876L29.482 23.376C29.6388 23.2897 29.7696 23.1629 29.8608 23.0088C29.9519 22.8547 30 22.679 30 22.5V9.50001C30 9.321 29.9519 9.14528 29.8608 8.99119C29.7696 8.8371 29.6388 8.7103 29.482 8.62401ZM19 5.14201L26.925 9.50001L19 13.858L11.075 9.50001L19 5.14201ZM28 21.909L20 26.309V15.59L28 11.19V21.909Z" fill="black"/>
<path d="M10 16H2V14H10V16Z" fill="black"/>
<path d="M12 24H4V22H12V24Z" fill="black"/>
<path d="M14 20H6V18H14V20Z" fill="black"/>
</svg>
