<svg width="173" height="48" viewBox="0 0 173 48" fill="none" xmlns="http://www.w3.org/2000/svg">
<rect width="173" height="48" fill="#282828"/>
<path d="M29.1727 26.305H27.0727V29.5H25.4077V19.225H29.1727C31.5027 19.225 32.6677 20.375 32.6677 22.675C32.6677 23.855 32.3727 24.755 31.7827 25.375C31.2027 25.995 30.3327 26.305 29.1727 26.305ZM27.0727 24.865H29.1577C30.3577 24.865 30.9577 24.135 30.9577 22.675C30.9577 21.975 30.8127 21.465 30.5227 21.145C30.2327 20.825 29.7777 20.665 29.1577 20.665H27.0727V24.865ZM37.185 25.84V29.5H35.52V19.225H39.42C41.74 19.225 42.9 20.315 42.9 22.495C42.9 23.955 42.34 24.945 41.22 25.465L42.915 29.5H41.085L39.6 25.84H37.185ZM41.19 22.51C41.19 21.28 40.6 20.665 39.42 20.665H37.185V24.4H39.45C40.05 24.4 40.49 24.23 40.77 23.89C41.05 23.54 41.19 23.08 41.19 22.51ZM46.0424 29.5V19.225H47.7074V29.5H46.0424ZM51.3207 29.5V19.225H54.2157L56.5107 27.25L58.8057 19.225H61.7157V29.5H60.0357V21.07H59.8107L57.3807 29.08H55.6407L53.2107 21.07H52.9857V29.5H51.3207ZM64.4299 29.5L66.9649 19.225H70.2799L72.8299 29.5H71.1499L70.5949 27.295H66.6499L66.0949 29.5H64.4299ZM68.2549 20.62L66.9799 25.825H70.2649L69.0049 20.62H68.2549ZM77.2094 25.84V29.5H75.5444V19.225H79.4444C81.7644 19.225 82.9244 20.315 82.9244 22.495C82.9244 23.955 82.3644 24.945 81.2444 25.465L82.9394 29.5H81.1094L79.6244 25.84H77.2094ZM81.2144 22.51C81.2144 21.28 80.6244 20.665 79.4444 20.665H77.2094V24.4H79.4744C80.0744 24.4 80.5144 24.23 80.7944 23.89C81.0744 23.54 81.2144 23.08 81.2144 22.51ZM89.5099 29.5H87.8299V25.27L84.6049 19.225H86.4799L88.6549 23.635L90.8449 19.225H92.7049L89.5099 25.27V29.5Z" fill="white"/>
<path d="M138.5 16.5L137.427 17.5448L143.112 23.25H128V24.75H143.112L137.427 30.4297L138.5 31.5L146 24L138.5 16.5Z" fill="white"/>
</svg>
