<svg width="173" height="48" viewBox="0 0 173 48" fill="none" xmlns="http://www.w3.org/2000/svg">
<rect width="173" height="48" fill="#757575"/>
<path d="M29.1727 25.805H27.0727V29H25.4077V18.725H29.1727C31.5027 18.725 32.6677 19.875 32.6677 22.175C32.6677 23.355 32.3727 24.255 31.7827 24.875C31.2027 25.495 30.3327 25.805 29.1727 25.805ZM27.0727 24.365H29.1577C30.3577 24.365 30.9577 23.635 30.9577 22.175C30.9577 21.475 30.8127 20.965 30.5227 20.645C30.2327 20.325 29.7777 20.165 29.1577 20.165H27.0727V24.365ZM37.185 25.34V29H35.52V18.725H39.42C41.74 18.725 42.9 19.815 42.9 21.995C42.9 23.455 42.34 24.445 41.22 24.965L42.915 29H41.085L39.6 25.34H37.185ZM41.19 22.01C41.19 20.78 40.6 20.165 39.42 20.165H37.185V23.9H39.45C40.05 23.9 40.49 23.73 40.77 23.39C41.05 23.04 41.19 22.58 41.19 22.01ZM46.0424 29V18.725H47.7074V29H46.0424ZM51.3207 29V18.725H54.2157L56.5107 26.75L58.8057 18.725H61.7157V29H60.0357V20.57H59.8107L57.3807 28.58H55.6407L53.2107 20.57H52.9857V29H51.3207ZM64.4299 29L66.9649 18.725H70.2799L72.8299 29H71.1499L70.5949 26.795H66.6499L66.0949 29H64.4299ZM68.2549 20.12L66.9799 25.325H70.2649L69.0049 20.12H68.2549ZM77.2094 25.34V29H75.5444V18.725H79.4444C81.7644 18.725 82.9244 19.815 82.9244 21.995C82.9244 23.455 82.3644 24.445 81.2444 24.965L82.9394 29H81.1094L79.6244 25.34H77.2094ZM81.2144 22.01C81.2144 20.78 80.6244 20.165 79.4444 20.165H77.2094V23.9H79.4744C80.0744 23.9 80.5144 23.73 80.7944 23.39C81.0744 23.04 81.2144 22.58 81.2144 22.01ZM89.5099 29H87.8299V24.77L84.6049 18.725H86.4799L88.6549 23.135L90.8449 18.725H92.7049L89.5099 24.77V29Z" fill="white"/>
<path d="M138.5 16.5L137.427 17.5448L143.112 23.25H128V24.75H143.112L137.427 30.4297L138.5 31.5L146 24L138.5 16.5Z" fill="white"/>
</svg>
