<svg width="32" height="32" viewBox="0 0 32 32" fill="none" xmlns="http://www.w3.org/2000/svg">
<path d="M25.95 7.65L25.955 7.646C25.863 7.536 25.758 7.44 25.662 7.334C25.478 7.129 25.295 6.924 25.099 6.731C24.96 6.595 24.813 6.469 24.669 6.34C24.486 6.175 24.303 6.011 24.111 5.858C23.951 5.73 23.786 5.611 23.621 5.491C23.429 5.351 23.236 5.214 23.036 5.085C22.8609 4.97291 22.6831 4.86488 22.503 4.761C22.2977 4.64167 22.0893 4.528 21.878 4.42C21.694 4.326 21.508 4.235 21.318 4.15C21.096 4.05 20.869 3.959 20.64 3.87C20.45 3.798 20.262 3.725 20.069 3.662C19.823 3.58 19.571 3.512 19.319 3.445C19.133 3.396 18.951 3.343 18.763 3.302C18.473 3.239 18.176 3.195 17.88 3.152C17.72 3.129 17.565 3.096 17.404 3.079C15.2686 2.84185 13.1078 3.14042 11.1168 3.94773C9.12576 4.75504 7.36721 6.04566 6.00001 7.703V4H4.00001V12H12V10H6.81101C7.80461 8.46678 9.1657 7.20625 10.7705 6.33302C12.3753 5.45979 14.173 5.00156 16 5C16.3973 5.00106 16.7942 5.02343 17.189 5.067C17.325 5.082 17.457 5.109 17.592 5.128C17.842 5.165 18.093 5.203 18.338 5.256C18.498 5.291 18.653 5.336 18.81 5.377C19.023 5.434 19.235 5.491 19.443 5.56C19.607 5.614 19.768 5.676 19.929 5.738C20.122 5.812 20.313 5.888 20.499 5.973C20.661 6.045 20.819 6.123 20.976 6.203C21.1547 6.29367 21.33 6.389 21.502 6.489C21.655 6.579 21.807 6.669 21.955 6.765C22.123 6.875 22.285 6.989 22.447 7.107C22.587 7.209 22.729 7.31 22.864 7.419C23.026 7.549 23.18 7.687 23.334 7.825C23.457 7.935 23.582 8.042 23.699 8.157C23.866 8.321 24.022 8.495 24.178 8.669C25.3681 9.9964 26.2175 11.5933 26.653 13.3221C27.0885 15.0509 27.097 16.8597 26.6777 18.5925C26.2585 20.3253 25.4241 21.9301 24.2465 23.2686C23.0689 24.6071 21.5835 25.6392 19.9182 26.2757C18.2529 26.9123 16.4578 27.1343 14.6876 26.9226C12.9175 26.7109 11.2253 26.0719 9.75714 25.0605C8.28894 24.0492 7.08872 22.696 6.25998 21.1176C5.43123 19.5391 4.99881 17.7828 5.00001 16H3.00001C2.99737 18.0911 3.49922 20.1521 4.46299 22.0079C5.42676 23.8637 6.824 25.4596 8.53614 26.6602C10.2483 27.8609 12.2248 28.6307 14.2979 28.9045C16.3711 29.1783 18.4797 28.948 20.4448 28.233C22.4099 27.518 24.1736 26.3395 25.5861 24.7975C26.9986 23.2555 28.0182 21.3955 28.5586 19.3754C29.0989 17.3553 29.1439 15.2346 28.6898 13.1934C28.2357 11.1521 27.2958 9.25053 25.95 7.65V7.65Z" fill="black"/>
</svg>
