<svg width="173" height="48" viewBox="0 0 173 48" fill="none" xmlns="http://www.w3.org/2000/svg">
<rect width="173" height="48" fill="#757575"/>
<path d="M57.1727 26.305H55.0727V29.5H53.4077V19.225H57.1727C59.5027 19.225 60.6677 20.375 60.6677 22.675C60.6677 23.855 60.3727 24.755 59.7827 25.375C59.2027 25.995 58.3327 26.305 57.1727 26.305ZM55.0727 24.865H57.1577C58.3577 24.865 58.9577 24.135 58.9577 22.675C58.9577 21.975 58.8127 21.465 58.5227 21.145C58.2327 20.825 57.7777 20.665 57.1577 20.665H55.0727V24.865ZM65.185 25.84V29.5H63.52V19.225H67.42C69.74 19.225 70.9 20.315 70.9 22.495C70.9 23.955 70.34 24.945 69.22 25.465L70.915 29.5H69.085L67.6 25.84H65.185ZM69.19 22.51C69.19 21.28 68.6 20.665 67.42 20.665H65.185V24.4H67.45C68.05 24.4 68.49 24.23 68.77 23.89C69.05 23.54 69.19 23.08 69.19 22.51ZM74.0424 29.5V19.225H75.7074V29.5H74.0424ZM79.3207 29.5V19.225H82.2157L84.5107 27.25L86.8057 19.225H89.7157V29.5H88.0357V21.07H87.8107L85.3807 29.08H83.6407L81.2107 21.07H80.9857V29.5H79.3207ZM92.4299 29.5L94.9649 19.225H98.2799L100.83 29.5H99.1499L98.5949 27.295H94.6499L94.0949 29.5H92.4299ZM96.2549 20.62L94.9799 25.825H98.2649L97.0049 20.62H96.2549ZM105.209 25.84V29.5H103.544V19.225H107.444C109.764 19.225 110.924 20.315 110.924 22.495C110.924 23.955 110.364 24.945 109.244 25.465L110.939 29.5H109.109L107.624 25.84H105.209ZM109.214 22.51C109.214 21.28 108.624 20.665 107.444 20.665H105.209V24.4H107.474C108.074 24.4 108.514 24.23 108.794 23.89C109.074 23.54 109.214 23.08 109.214 22.51ZM117.51 29.5H115.83V25.27L112.605 19.225H114.48L116.655 23.635L118.845 19.225H120.705L117.51 25.27V29.5Z" fill="white"/>
</svg>
