<svg width="174" height="48" viewBox="0 0 174 48" fill="none" xmlns="http://www.w3.org/2000/svg">
<rect width="174" height="48" fill="#3E3B3B"/>
<path d="M58.1727 26.805H56.0727V30H54.4077V19.725H58.1727C60.5027 19.725 61.6677 20.875 61.6677 23.175C61.6677 24.355 61.3727 25.255 60.7827 25.875C60.2027 26.495 59.3327 26.805 58.1727 26.805ZM56.0727 25.365H58.1577C59.3577 25.365 59.9577 24.635 59.9577 23.175C59.9577 22.475 59.8127 21.965 59.5227 21.645C59.2327 21.325 58.7777 21.165 58.1577 21.165H56.0727V25.365ZM66.185 26.34V30H64.52V19.725H68.42C70.74 19.725 71.9 20.815 71.9 22.995C71.9 24.455 71.34 25.445 70.22 25.965L71.915 30H70.085L68.6 26.34H66.185ZM70.19 23.01C70.19 21.78 69.6 21.165 68.42 21.165H66.185V24.9H68.45C69.05 24.9 69.49 24.73 69.77 24.39C70.05 24.04 70.19 23.58 70.19 23.01ZM75.0424 30V19.725H76.7074V30H75.0424ZM80.3207 30V19.725H83.2157L85.5107 27.75L87.8057 19.725H90.7157V30H89.0357V21.57H88.8107L86.3807 29.58H84.6407L82.2107 21.57H81.9857V30H80.3207ZM93.4299 30L95.9649 19.725H99.2799L101.83 30H100.15L99.5949 27.795H95.6499L95.0949 30H93.4299ZM97.2549 21.12L95.9799 26.325H99.2649L98.0049 21.12H97.2549ZM106.209 26.34V30H104.544V19.725H108.444C110.764 19.725 111.924 20.815 111.924 22.995C111.924 24.455 111.364 25.445 110.244 25.965L111.939 30H110.109L108.624 26.34H106.209ZM110.214 23.01C110.214 21.78 109.624 21.165 108.444 21.165H106.209V24.9H108.474C109.074 24.9 109.514 24.73 109.794 24.39C110.074 24.04 110.214 23.58 110.214 23.01ZM118.51 30H116.83V25.77L113.605 19.725H115.48L117.655 24.135L119.845 19.725H121.705L118.51 25.77V30Z" fill="white"/>
</svg>
