<svg width="310" height="70" viewBox="0 0 310 70" fill="none" xmlns="http://www.w3.org/2000/svg">
<rect width="310" height="70" fill="#282828"/>
<path d="M82.52 41V30.725H88.895V32.18H84.185V35.645H88.1V37.1H84.185V41H82.52ZM91.7094 41V30.725H93.3744V41H91.7094ZM96.9877 41V30.725H99.8977L103.018 39.53H103.243V30.725H104.908V41H102.058L98.8627 32.18H98.6527V41H96.9877ZM107.636 41L110.171 30.725H113.486L116.036 41H114.356L113.801 38.795H109.856L109.301 41H107.636ZM111.461 32.12L110.186 37.325H113.471L112.211 32.12H111.461ZM124.51 41H118.75V30.725H120.415V39.515H124.51V41ZM127.12 41V30.725H128.785V41H127.12ZM131.843 32.18V30.725H138.593V32.33L133.823 39.26V39.545H138.593V41H131.843V39.41L136.598 32.48V32.18H131.843ZM140.776 41L143.311 30.725H146.626L149.176 41H147.496L146.941 38.795H142.996L142.441 41H140.776ZM144.601 32.12L143.326 37.325H146.611L145.351 32.12H144.601ZM153.555 37.34V41H151.89V30.725H155.79C158.11 30.725 159.27 31.815 159.27 33.995C159.27 35.455 158.71 36.445 157.59 36.965L159.285 41H157.455L155.97 37.34H153.555ZM157.56 34.01C157.56 32.78 156.97 32.165 155.79 32.165H153.555V35.9H155.82C156.42 35.9 156.86 35.73 157.14 35.39C157.42 35.04 157.56 34.58 157.56 34.01ZM170.408 41.165C168.908 41.165 167.888 40.75 167.348 39.92C166.818 39.09 166.553 37.725 166.553 35.825C166.553 33.925 166.823 32.575 167.363 31.775C167.903 30.965 168.918 30.56 170.408 30.56C171.298 30.56 172.278 30.685 173.348 30.935L173.288 32.285C172.388 32.125 171.488 32.045 170.588 32.045C169.688 32.045 169.078 32.315 168.758 32.855C168.438 33.385 168.278 34.39 168.278 35.87C168.278 37.34 168.433 38.345 168.743 38.885C169.053 39.415 169.658 39.68 170.558 39.68C171.458 39.68 172.368 39.605 173.288 39.455L173.333 40.835C172.303 41.055 171.328 41.165 170.408 41.165ZM178.035 38.825C178.375 39.415 179.025 39.71 179.985 39.71C180.945 39.71 181.59 39.42 181.92 38.84C182.26 38.26 182.43 37.29 182.43 35.93C182.43 34.56 182.255 33.565 181.905 32.945C181.565 32.325 180.925 32.015 179.985 32.015C179.045 32.015 178.4 32.325 178.05 32.945C177.7 33.565 177.525 34.555 177.525 35.915C177.525 37.265 177.695 38.235 178.035 38.825ZM183.225 39.905C182.615 40.745 181.535 41.165 179.985 41.165C178.435 41.165 177.35 40.745 176.73 39.905C176.11 39.055 175.8 37.725 175.8 35.915C175.8 34.105 176.11 32.76 176.73 31.88C177.36 31 178.445 30.56 179.985 30.56C181.525 30.56 182.605 31 183.225 31.88C183.845 32.75 184.155 34.095 184.155 35.915C184.155 37.735 183.845 39.065 183.225 39.905ZM187.344 41V30.725H190.239L192.534 38.75L194.829 30.725H197.739V41H196.059V32.57H195.834L193.404 40.58H191.664L189.234 32.57H189.009V41H187.344ZM205.103 37.805H203.003V41H201.338V30.725H205.103C207.433 30.725 208.598 31.875 208.598 34.175C208.598 35.355 208.303 36.255 207.713 36.875C207.133 37.495 206.263 37.805 205.103 37.805ZM203.003 36.365H205.088C206.288 36.365 206.888 35.635 206.888 34.175C206.888 33.475 206.743 32.965 206.453 32.645C206.163 32.325 205.708 32.165 205.088 32.165H203.003V36.365ZM213.116 37.34V41H211.451V30.725H215.351C217.671 30.725 218.831 31.815 218.831 33.995C218.831 35.455 218.271 36.445 217.151 36.965L218.846 41H217.016L215.531 37.34H213.116ZM217.121 34.01C217.121 32.78 216.531 32.165 215.351 32.165H213.116V35.9H215.381C215.981 35.9 216.421 35.73 216.701 35.39C216.981 35.04 217.121 34.58 217.121 34.01ZM220.986 41L223.521 30.725H226.836L229.386 41H227.706L227.151 38.795H223.206L222.651 41H220.986ZM224.811 32.12L223.536 37.325H226.821L225.561 32.12H224.811Z" fill="white"/>
</svg>
