<svg width="309" height="68" viewBox="0 0 309 68" fill="none" xmlns="http://www.w3.org/2000/svg">
<rect width="309" height="68" fill="#757575"/>
<path d="M29.344 36.305H27.244V39.5H25.579V29.225H29.344C31.674 29.225 32.839 30.375 32.839 32.675C32.839 33.855 32.544 34.755 31.954 35.375C31.374 35.995 30.504 36.305 29.344 36.305ZM27.244 34.865H29.329C30.529 34.865 31.129 34.135 31.129 32.675C31.129 31.975 30.984 31.465 30.694 31.145C30.404 30.825 29.949 30.665 29.329 30.665H27.244V34.865ZM37.3563 35.84V39.5H35.6913V29.225H39.5913C41.9113 29.225 43.0713 30.315 43.0713 32.495C43.0713 33.955 42.5113 34.945 41.3913 35.465L43.0863 39.5H41.2563L39.7713 35.84H37.3563ZM41.3613 32.51C41.3613 31.28 40.7713 30.665 39.5913 30.665H37.3563V34.4H39.6213C40.2213 34.4 40.6613 34.23 40.9413 33.89C41.2213 33.54 41.3613 33.08 41.3613 32.51ZM46.2138 39.5V29.225H47.8788V39.5H46.2138ZM51.4921 39.5V29.225H54.3871L56.6821 37.25L58.9771 29.225H61.8871V39.5H60.2071V31.07H59.9821L57.5521 39.08H55.8121L53.3821 31.07H53.1571V39.5H51.4921ZM64.6013 39.5L67.1363 29.225H70.4513L73.0013 39.5H71.3213L70.7663 37.295H66.8213L66.2663 39.5H64.6013ZM68.4263 30.62L67.1513 35.825H70.4363L69.1763 30.62H68.4263ZM77.3808 35.84V39.5H75.7158V29.225H79.6158C81.9358 29.225 83.0958 30.315 83.0958 32.495C83.0958 33.955 82.5358 34.945 81.4158 35.465L83.1108 39.5H81.2808L79.7958 35.84H77.3808ZM81.3858 32.51C81.3858 31.28 80.7958 30.665 79.6158 30.665H77.3808V34.4H79.6458C80.2458 34.4 80.6858 34.23 80.9658 33.89C81.2458 33.54 81.3858 33.08 81.3858 32.51ZM89.6813 39.5H88.0013V35.27L84.7763 29.225H86.6513L88.8263 33.635L91.0163 29.225H92.8763L89.6813 35.27V39.5ZM105.69 39.5H99.9296V29.225H101.595V38.015H105.69V39.5ZM107.414 39.5L109.949 29.225H113.264L115.814 39.5H114.134L113.579 37.295H109.634L109.079 39.5H107.414ZM111.239 30.62L109.964 35.825H113.249L111.989 30.62H111.239ZM120.193 35.84V39.5H118.528V29.225H122.428C124.748 29.225 125.908 30.315 125.908 32.495C125.908 33.955 125.348 34.945 124.228 35.465L125.923 39.5H124.093L122.608 35.84H120.193ZM124.198 32.51C124.198 31.28 123.608 30.665 122.428 30.665H120.193V34.4H122.458C123.058 34.4 123.498 34.23 123.778 33.89C124.058 33.54 124.198 33.08 124.198 32.51ZM133.236 35.57V34.1H136.161V39.32C135.891 39.39 135.341 39.465 134.511 39.545C133.691 39.625 133.096 39.665 132.726 39.665C131.166 39.665 130.091 39.235 129.501 38.375C128.911 37.515 128.616 36.17 128.616 34.34C128.616 32.5 128.916 31.16 129.516 30.32C130.126 29.48 131.176 29.06 132.666 29.06C133.546 29.06 134.536 29.16 135.636 29.36L136.161 29.465L136.101 30.785C134.891 30.625 133.806 30.545 132.846 30.545C131.886 30.545 131.226 30.815 130.866 31.355C130.516 31.895 130.341 32.895 130.341 34.355C130.341 35.815 130.506 36.825 130.836 37.385C131.176 37.935 131.856 38.21 132.876 38.21C133.606 38.21 134.151 38.165 134.511 38.075V35.57H133.236ZM139.5 39.5V29.225H145.98V30.68H141.165V33.59H145.08V35.03H141.165V38.03H145.98V39.5H139.5Z" fill="white"/>
<path d="M274.5 26.5L273.427 27.5448L279.112 33.25H264V34.75H279.112L273.427 40.4297L274.5 41.5L282 34L274.5 26.5Z" fill="white"/>
</svg>
