<svg width="173" height="48" viewBox="0 0 173 48" fill="none" xmlns="http://www.w3.org/2000/svg">
<rect width="173" height="48" fill="#CDBFBF"/>
<path d="M28.6512 20.515C27.3812 20.515 26.7462 20.96 26.7462 21.85C26.7462 22.31 26.8962 22.64 27.1962 22.84C27.4962 23.03 28.1562 23.27 29.1762 23.56C30.2062 23.84 30.9312 24.18 31.3512 24.58C31.7712 24.97 31.9812 25.59 31.9812 26.44C31.9812 27.52 31.6712 28.33 31.0512 28.87C30.4412 29.4 29.6062 29.665 28.5462 29.665C27.6962 29.665 26.7562 29.565 25.7262 29.365L25.1862 29.26L25.3512 27.925C26.7012 28.105 27.7312 28.195 28.4412 28.195C29.6812 28.195 30.3012 27.645 30.3012 26.545C30.3012 26.115 30.1612 25.8 29.8812 25.6C29.6012 25.39 28.9712 25.165 27.9912 24.925C27.0112 24.675 26.2812 24.335 25.8012 23.905C25.3212 23.475 25.0812 22.795 25.0812 21.865C25.0812 20.935 25.3812 20.235 25.9812 19.765C26.5912 19.285 27.4312 19.045 28.5012 19.045C29.2712 19.045 30.1812 19.135 31.2312 19.315L31.7562 19.405L31.6212 20.755C30.2212 20.595 29.2312 20.515 28.6512 20.515ZM35.0307 29.5V19.225H41.5107V20.68H36.6957V23.59H40.6107V25.03H36.6957V28.03H41.5107V29.5H35.0307ZM47.9338 29.665C46.4338 29.665 45.4138 29.25 44.8738 28.42C44.3438 27.59 44.0788 26.225 44.0788 24.325C44.0788 22.425 44.3488 21.075 44.8888 20.275C45.4288 19.465 46.4438 19.06 47.9338 19.06C48.8238 19.06 49.8038 19.185 50.8738 19.435L50.8138 20.785C49.9138 20.625 49.0138 20.545 48.1138 20.545C47.2138 20.545 46.6038 20.815 46.2838 21.355C45.9638 21.885 45.8038 22.89 45.8038 24.37C45.8038 25.84 45.9588 26.845 46.2688 27.385C46.5788 27.915 47.1838 28.18 48.0838 28.18C48.9838 28.18 49.8938 28.105 50.8138 27.955L50.8588 29.335C49.8288 29.555 48.8538 29.665 47.9338 29.665ZM55.5608 27.325C55.9008 27.915 56.5508 28.21 57.5108 28.21C58.4708 28.21 59.1158 27.92 59.4458 27.34C59.7858 26.76 59.9558 25.79 59.9558 24.43C59.9558 23.06 59.7808 22.065 59.4308 21.445C59.0908 20.825 58.4508 20.515 57.5108 20.515C56.5708 20.515 55.9258 20.825 55.5758 21.445C55.2258 22.065 55.0508 23.055 55.0508 24.415C55.0508 25.765 55.2208 26.735 55.5608 27.325ZM60.7508 28.405C60.1408 29.245 59.0608 29.665 57.5108 29.665C55.9608 29.665 54.8758 29.245 54.2558 28.405C53.6358 27.555 53.3258 26.225 53.3258 24.415C53.3258 22.605 53.6358 21.26 54.2558 20.38C54.8858 19.5 55.9708 19.06 57.5108 19.06C59.0508 19.06 60.1308 19.5 60.7508 20.38C61.3708 21.25 61.6808 22.595 61.6808 24.415C61.6808 26.235 61.3708 27.565 60.7508 28.405ZM64.8696 29.5V19.225H67.7796L70.8996 28.03H71.1246V19.225H72.7896V29.5H69.9396L66.7446 20.68H66.5346V29.5H64.8696ZM79.9578 29.5H76.4028V19.225H79.9578C81.5378 19.225 82.6178 19.625 83.1978 20.425C83.7778 21.225 84.0678 22.48 84.0678 24.19C84.0678 25.06 84.0078 25.8 83.8878 26.41C83.7778 27.01 83.5778 27.555 83.2878 28.045C82.7178 29.015 81.6078 29.5 79.9578 29.5ZM82.3428 24.19C82.3428 22.95 82.1878 22.055 81.8778 21.505C81.5678 20.955 80.9278 20.68 79.9578 20.68H78.0678V28.03H79.9578C80.9478 28.03 81.6078 27.665 81.9378 26.935C82.0978 26.565 82.2028 26.17 82.2528 25.75C82.3128 25.33 82.3428 24.81 82.3428 24.19ZM86.2014 29.5L88.7364 19.225H92.0514L94.6014 29.5H92.9214L92.3664 27.295H88.4214L87.8664 29.5H86.2014ZM90.0264 20.62L88.7514 25.825H92.0364L90.7764 20.62H90.0264ZM98.9809 25.84V29.5H97.3159V19.225H101.216C103.536 19.225 104.696 20.315 104.696 22.495C104.696 23.955 104.136 24.945 103.016 25.465L104.711 29.5H102.881L101.396 25.84H98.9809ZM102.986 22.51C102.986 21.28 102.396 20.665 101.216 20.665H98.9809V24.4H101.246C101.846 24.4 102.286 24.23 102.566 23.89C102.846 23.54 102.986 23.08 102.986 22.51ZM111.281 29.5H109.601V25.27L106.376 19.225H108.251L110.426 23.635L112.616 19.225H114.476L111.281 25.27V29.5Z" fill="white"/>
<path d="M138.5 16.5L137.427 17.5448L143.112 23.25H128V24.75H143.112L137.427 30.4297L138.5 31.5L146 24L138.5 16.5Z" fill="white"/>
</svg>
